<svg width="320" height="321" viewBox="0 0 320 321" fill="none" xmlns="http://www.w3.org/2000/svg">
<mask id="path-1-inside-1_266_3801" fill="white">
<path d="M0 0H320V320H0V0Z"/>
</mask>
<path d="M0 0H320V320H0V0Z" fill="#7F2700"/>
<path d="M320 320V319H0V320V321H320V320Z" fill="#7F2700" mask="url(#path-1-inside-1_266_3801)"/>
<path d="M242.345 47.4954C250.351 39.4902 263.332 39.4899 271.337 47.4954C279.342 55.5008 279.342 68.4793 271.337 76.485L27.8218 320.001H0V289.841L242.345 47.4954Z" fill="white"/>
<path d="M130.463 82.5155C138.468 74.5104 151.449 74.51 159.455 82.5155C167.459 90.5209 167.459 103.5 159.455 111.505L0 270.96V212.978L130.463 82.5155Z" fill="white"/>
<path d="M242.072 308.511C242.072 314.526 237.196 319.402 231.181 319.402H209.399C203.384 319.402 198.508 314.526 198.508 308.511C198.508 302.496 203.384 297.62 209.399 297.62H231.181C237.196 297.62 242.072 302.496 242.072 308.511Z" fill="white"/>
<path d="M285.634 308.511C285.634 314.525 280.758 319.402 274.744 319.402C268.73 319.402 263.854 314.525 263.854 308.511C263.854 302.497 268.73 297.62 274.744 297.62C280.758 297.62 285.634 302.497 285.634 308.511Z" fill="white"/>
<path d="M241.645 276.906C241.645 282.921 236.769 287.797 230.754 287.797C224.739 287.797 219.863 282.921 219.863 276.906C219.863 270.891 224.739 266.015 230.754 266.015C236.769 266.015 241.645 270.891 241.645 276.906Z" fill="white"/>
<path d="M263.854 258.116C263.854 264.131 258.978 269.007 252.963 269.007C246.948 269.007 242.072 264.131 242.072 258.116C242.072 252.101 246.948 247.225 252.963 247.225C258.978 247.225 263.854 252.101 263.854 258.116Z" fill="white"/>
<path d="M238.228 215.622C238.228 220.575 234.212 224.59 229.259 224.59C224.306 224.59 220.29 228.606 220.29 233.559V235.48C220.29 241.494 215.414 246.37 209.399 246.37C203.385 246.37 198.508 241.494 198.508 235.48V233.559C198.508 228.606 202.524 224.59 207.477 224.59C212.43 224.59 216.446 220.575 216.446 215.622V213.699C216.446 207.684 221.322 202.808 227.337 202.808C233.352 202.808 238.228 207.684 238.228 213.699V215.622Z" fill="white"/>
<path d="M270.686 216.689C270.686 221.053 274.223 224.59 278.587 224.59C282.951 224.59 286.488 228.128 286.488 232.492V235.48C286.488 241.494 281.612 246.37 275.598 246.37C269.583 246.37 264.707 241.494 264.707 235.48V232.492C264.707 228.128 261.169 224.59 256.805 224.59C252.441 224.59 248.904 221.053 248.904 216.689V213.699C248.904 207.684 253.78 202.808 259.795 202.808C265.81 202.808 270.686 207.684 270.686 213.699V216.689Z" fill="white"/>
</svg>
