<svg width="320" height="320" viewBox="0 0 320 320" fill="none" xmlns="http://www.w3.org/2000/svg">
<rect width="320" height="320" fill="#7F2700"/>
<path d="M159.117 257.582C159.117 269.963 149.03 280 136.587 280H91.5291C79.0866 280 69 269.963 69 257.582C69 245.202 79.0866 235.165 91.5291 235.165H136.587C149.03 235.165 159.117 245.202 159.117 257.582Z" fill="white"/>
<path d="M249.233 257.582C249.233 269.963 239.146 280 226.704 280C214.261 280 204.175 269.963 204.175 257.582C204.175 245.202 214.261 235.165 226.704 235.165C239.146 235.165 249.233 245.202 249.233 257.582Z" fill="white"/>
<path d="M158.233 192.523C158.233 204.904 148.146 214.94 135.704 214.94C123.261 214.94 113.175 204.904 113.175 192.523C113.175 180.142 123.261 170.105 135.704 170.105C148.146 170.105 158.233 180.142 158.233 192.523Z" fill="white"/>
<path d="M204.175 153.846C204.175 166.227 194.088 176.264 181.646 176.264C169.203 176.264 159.117 166.227 159.117 153.846C159.117 141.465 169.203 131.429 181.646 131.429C194.088 131.429 204.175 141.465 204.175 153.846Z" fill="white"/>
<path d="M151.165 66.3736C151.165 76.5697 142.858 84.8352 132.612 84.8352C122.365 84.8352 114.058 93.1007 114.058 103.297V107.253C114.058 119.634 103.972 129.67 91.5291 129.67C79.0866 129.67 69 119.634 69 107.253V103.297C69 93.1007 77.3066 84.8352 87.5534 84.8352C97.8002 84.8352 106.107 76.5697 106.107 66.3736V62.4176C106.107 50.0367 116.193 40 128.636 40C141.078 40 151.165 50.0367 151.165 62.4176V66.3736Z" fill="white"/>
<path d="M218.311 68.5714C218.311 77.5536 225.628 84.8352 234.655 84.8352C243.682 84.8352 251 92.1167 251 101.099V107.253C251 119.634 240.913 129.67 228.471 129.67C216.028 129.67 205.942 119.634 205.942 107.253V101.099C205.942 92.1167 198.624 84.8352 189.597 84.8352C180.57 84.8352 173.252 77.5536 173.252 68.5714V62.4176C173.252 50.0367 183.339 40 195.782 40C208.224 40 218.311 50.0367 218.311 62.4176V68.5714Z" fill="white"/>
</svg>
